<svg width="3436" height="3216" viewBox="0 0 3436 3216" fill="none" xmlns="http://www.w3.org/2000/svg">
<path d="M1517 0C1570.46 0 1623.92 0 1679 0C1679.33 1.32 1679.66 2.64 1680 4C1698.15 4 1716.3 4 1735 4C1735.33 5.32 1735.66 6.64 1736 8C1747.55 8 1759.1 8 1771 8C1771.33 9.32 1771.66 10.64 1772 12C1782.23 12 1792.46 12 1803 12C1803.33 13.32 1803.66 14.64 1804 16C1812.91 16 1821.82 16 1831 16C1831.33 17.32 1831.66 18.64 1832 20C1839.59 20 1847.18 20 1855 20C1855.33 21.32 1855.66 22.64 1856 24C1863.59 24 1871.18 24 1879 24C1879.33 25.32 1879.66 26.64 1880 28C1886.27 28 1892.54 28 1899 28C1899.33 29.32 1899.66 30.64 1900 32C1906.27 32 1912.54 32 1919 32C1919.33 33.32 1919.66 34.64 1920 36C1926.27 36 1932.54 36 1939 36C1939.33 37.32 1939.66 38.64 1940 40C1946.27 40 1952.54 40 1959 40C1959.33 41.32 1959.66 42.64 1960 44C1964.95 44 1969.9 44 1975 44C1975.33 45.32 1975.66 46.64 1976 48C1980.95 48 1985.9 48 1991 48C1991.33 49.32 1991.66 50.64 1992 52C1996.95 52 2001.9 52 2007 52C2007.33 53.32 2007.66 54.64 2008 56C2011.63 56 2015.26 56 2019 56C2019.33 57.32 2019.66 58.64 2020 60C2024.95 60 2029.9 60 2035 60C2035.33 61.32 2035.66 62.64 2036 64C2039.63 64 2043.26 64 2047 64C2047.33 65.32 2047.66 66.64 2048 68C2052.95 68 2057.9 68 2063 68C2063.5 69.98 2063.5 69.98 2064 72C2067.63 72 2071.26 72 2075 72C2075.5 73.98 2075.5 73.98 2076 76C2079.63 76 2083.26 76 2087 76C2087.5 77.98 2087.5 77.98 2088 80C2091.63 80 2095.26 80 2099 80C2099.5 81.98 2099.5 81.98 2100 84C2103.63 84 2107.26 84 2111 84C2111.5 85.98 2111.5 85.98 2112 88C2115.63 88 2119.26 88 2123 88C2123.5 89.98 2123.5 89.98 2124 92C2127.63 92 2131.26 92 2135 92C2135.5 93.98 2135.5 93.98 2136 96C2139.63 96 2143.26 96 2147 96C2147.5 97.98 2147.5 97.98 2148 100C2150.31 100 2152.62 100 2155 100C2155.5 101.98 2155.5 101.98 2156 104C2159.63 104 2163.26 104 2167 104C2167.5 105.98 2167.5 105.98 2168 108C2171.63 108 2175.26 108 2179 108C2179.5 109.98 2179.5 109.98 2180 112C2182.31 112 2184.62 112 2187 112C2187.5 113.98 2187.5 113.98 2188 116C2191.63 116 2195.26 116 2199 116C2199.5 117.98 2199.5 117.98 2200 120C2202.31 120 2204.62 120 2207 120C2207.5 121.98 2207.5 121.98 2208 124C2211.63 124 2215.26 124 2219 124C2219.5 125.98 2219.5 125.98 2220 128C2222.31 128 2224.62 128 2227 128C2227.5 129.98 2227.5 129.98 2228 132C2230.31 132 2232.62 132 2235 132C2235.5 133.98 2235.5 133.98 2236 136C2238.31 136 2240.62 136 2243 136C2243.5 137.98 2243.5 137.98 2244 140C2247.63 140 2251.26 140 2255 140C2255.5 141.98 2255.5 141.98 2256 144C2258.31 144 2260.62 144 2263 144C2263.5 145.98 2263.5 145.98 2264 148C2266.31 148 2268.62 148 2271 148C2271.5 149.98 2271.5 149.98 2272 152C2274.31 152 2276.62 152 2279 152C2279.5 153.98 2279.5 153.98 2280 156C2282.31 156 2284.62 156 2287 156C2287.5 157.98 2287.5 157.98 2288 160C2291.63 160 2295.26 160 2299 160C2299.5 161.98 2299.5 161.98 2300 164C2302.31 164 2304.62 164 2307 164C2307.5 165.98 2307.5 165.98 2308 168C2310.31 168 2312.62 168 2315 168C2315.5 169.98 2315.5 169.98 2316 172C2318.31 172 2320.62 172 2323 172C2323.5 173.98 2323.5 173.98 2324 176C2326.31 176 2328.62 176 2331 176C2331.5 177.98 2331.5 177.98 2332 180C2334.31 180 2336.62 180 2339 180C2339.5 181.98 2339.5 181.98 2340 184C2342.31 184 2344.62 184 2347 184C2347.5 185.98 2347.5 185.98 2348 188C2349.32 188.33 2350.64 188.66 2352 189C2352 189.99 2352 190.98 2352 192C2354.31 192 2356.62 192 2359 192C2359.5 193.98 2359.5 193.98 2360 196C2362.31 196 2364.62 196 2367 196C2367.5 197.98 2367.5 197.98 2368 200C2370.31 200 2372.62 200 2375 200C2375.5 201.98 2375.5 201.98 2376 204C2378.31 204 2380.62 204 2383 204C2383.5 205.98 2383.5 205.98 2384 208C2386.31 208 2388.62 208 2391 208C2391.5 209.98 2391.5 209.98 2392 212C2393.32 212.33 2394.64 212.66 2396 213C2396 213.99 2396 214.98 2396 216C2398.31 216 2400.62 216 2403 216C2403.5 217.98 2403.5 217.98 2404 220C2406.31 220 2408.62 220 2411 220C2411.5 221.98 2411.5 221.98 2412 224C2414.31 224 2416.62 224 2419 224C2419.5 225.98 2419.5 225.98 2420 228C2421.32 228.33 2422.64 228.66 2424 229C2424 229.99 2424 230.98 2424 232C2426.31 232 2428.62 232 2431 232C2431.5 233.98 2431.5 233.98 2432 236C2434.31 236 2436.62 236 2439 236C2439.5 237.98 2439.5 237.98 2440 240C2441.32 240.33 2442.64 240.66 2444 241C2444 241.99 2444 242.98 2444 244C2446.31 244 2448.62 244 2451 244C2451.5 245.98 2451.5 245.98 2452 248C2453.32 248.33 2454.64 248.66 2456 249C2456 249.99 2456 250.98 2456 252C2458.31 252 2460.62 252 2463 252C2463.5 253.98 2463.5 253.98 2464 256C2465.32 256.33 2466.64 256.66 2468 257C2468 257.99 2468 258.98 2468 260C2470.31 260 2472.62 260 2475 260C2475.5 261.98 2475.5 261.98 2476 264C2478.31 264 2480.62 264 2483 264C2483.5 265.98 2483.5 265.98 2484 268C2485.32 268.33 2486.64 268.66 2488 269C2488 269.99 2488 270.98 2488 272C2490.31 272 2492.62 272 2495 272C2495.5 273.98 2495.5 273.98 2496 276C2497.32 276.33 2498.64 276.66 2500 277C2500 277.99 2500 278.98 2500 280C2502.31 280 2504.62 280 2507 280C2507.5 281.98 2507.5 281.98 2508 284C2509.32 284.33 2510.64 284.66 2512 285C2512 285.99 2512 286.98 2512 288C2513.32 288.33 2514.64 288.66 2516 289C2516 289.99 2516 290.98 2516 292C2518.31 292 2520.62 292 2523 292C2523.5 293.98 2523.5 293.98 2524 296C2525.32 296.33 2526.64 296.66 2528 297C2528 297.99 2528 298.98 2528 300C2530.31 300 2532.62 300 2535 300C2535.5 301.98 2535.5 301.98 2536 304C2537.32 304.33 2538.64 304.66 2540 305C2540 305.99 2540 306.98 2540 308C2542.31 308 2544.62 308 2547 308C2547.5 309.98 2547.5 309.98 2548 312C2549.32 312.33 2550.64 312.66 2552 313C2552 313.99 2552 314.98 2552 316C2553.32 316.33 2554.64 316.66 2556 317C2556 317.99 2556 318.98 2556 320C2558.31 320 2560.62 320 2563 320C2563.5 321.98 2563.5 321.98 2564 324C2565.32 324.33 2566.64 324.66 2568 325C2568 325.99 2568 326.98 2568 328C2569.32 328.33 2570.64 328.66 2572 329C2572 329.99 2572 330.98 2572 332C2574.31 332 2576.62 332 2579 332C2579.5 333.98 2579.5 333.98 2580 336C2581.32 336.33 2582.64 336.66 2584 337C2584 337.99 2584 338.98 2584 340C2585.32 340.33 2586.64 340.66 2588 341C2588 341.99 2588 342.98 2588 344C2590.31 344 2592.62 344 2595 344C2595.5 345.98 2595.5 345.98 2596 348C2597.32 348.33 2598.64 348.66 2600 349C2600 349.99 2600 350.98 2600 352C2601.32 352.33 2602.64 352.66 2604 353C2604 353.99 2604 354.98 2604 356C2605.32 356.33 2606.64 356.66 2608 357C2608 357.99 2608 358.98 2608 360C2610.31 360 2612.62 360 2615 360C2615.5 361.98 2615.5 361.98 2616 364C2617.32 364.33 2618.64 364.66 2620 365C2620 365.99 2620 366.98 2620 368C2621.32 368.33 2622.64 368.66 2624 369C2624 369.99 2624 370.98 2624 372C2625.32 372.33 2626.64 372.66 2628 373C2628 373.99 2628 374.98 2628 376C2630.31 376 2632.62 376 2635 376C2635.5 377.98 2635.5 377.98 2636 380C2637.32 380.33 2638.64 380.66 2640 381C2640 381.99 2640 382.98 2640 384C2641.32 384.33 2642.64 384.66 2644 385C2644 385.99 2644 386.98 2644 388C2645.32 388.33 2646.64 388.66 2648 389C2648 389.99 2648 390.98 2648 392C2649.32 392.33 2650.64 392.66 2652 393C2652 393.99 2652 394.98 2652 396C2653.32 396.33 2654.64 396.66 2656 397C2656 397.99 2656 398.98 2656 400C2658.31 400 2660.62 400 2663 400C2663.5 401.98 2663.5 401.98 2664 404C2665.32 404.33 2666.64 404.66 2668 405C2668 405.99 2668 406.98 2668 408C2669.32 408.33 2670.64 408.66 2672 409C2672 409.99 2672 410.98 2672 412C2673.32 412.33 2674.64 412.66 2676 413C2676 413.99 2676 414.98 2676 416C2677.32 416.33 2678.64 416.66 2680 417C2680 417.99 2680 418.98 2680 420C2681.32 420.33 2682.64 420.66 2684 421C2684 421.99 2684 422.98 2684 424C2685.32 424.33 2686.64 424.66 2688 425C2688 425.99 2688 426.98 2688 428C2689.32 428.33 2690.64 428.66 2692 429C2692 429.99 2692 430.98 2692 432C2693.32 432.33 2694.64 432.66 2696 433C2696 433.99 2696 434.98 2696 436C2697.32 436.33 2698.64 436.66 2700 437C2700 437.99 2700 438.98 2700 440C2702.31 440 2704.62 440 2707 440C2707.5 441.98 2707.5 441.98 2708 444C2709.32 444.33 2710.64 444.66 2712 445C2712 445.99 2712 446.98 2712 448C2713.32 448.33 2714.64 448.66 2716 449C2716 449.99 2716 450.98 2716 452C2717.32 452.33 2718.64 452.66 2720 453C2720 453.99 2720 454.98 2720 456C2721.32 456.33 2722.64 456.66 2724 457C2724 457.99 2724 458.98 2724 460C2725.32 460.33 2726.64 460.66 2728 461C2728 461.99 2728 462.98 2728 464C2729.32 464.33 2730.64 464.66 2732 465C2732 465.99 2732 466.98 2732 468C2733.32 468.33 2734.64 468.66 2736 469C2736 469.99 2736 470.98 2736 472C2737.32 472.33 2738.64 472.66 2740 473C2740 473.99 2740 474.98 2740 476C2741.32 476.33 2742.64 476.66 2744 477C2744 477.99 2744 478.98 2744 480C2745.32 480.33 2746.64 480.66 2748 481C2748 481.99 2748 482.98 2748 484C2749.32 484.33 2750.64 484.66 2752 485C2752 485.99 2752 486.98 2752 488C2753.32 488.33 2754.64 488.66 2756 489C2756 489.99 2756 490.98 2756 492C2757.32 492.33 2758.64 492.66 2760 493C2760 493.99 2760 494.98 2760 496C2761.32 496.33 2762.64 496.66 2764 497C2764 497.99 2764 498.98 2764 500C2765.32 500.33 2766.64 500.66 2768 501C2768 501.99 2768 502.98 2768 504C2769.32 504.33 2770.64 504.66 2772 505C2772 505.99 2772 506.98 2772 508C2773.32 508.33 2774.64 508.66 2776 509C2776 509.99 2776 510.98 2776 512C2777.32 512.33 2778.64 512.66 2780 513C2780 513.99 2780 514.98 2780 516C2781.32 516.33 2782.64 516.66 2784 517C2784 517.99 2784 518.98 2784 520C2785.32 520.33 2786.64 520.66 2788 521C2788 521.99 2788 522.98 2788 524C2789.32 524.33 2790.64 524.66 2792 525C2792 527.31 2792 529.62 2792 532C2793.32 532.33 2794.64 532.66 2796 533C2796 533.99 2796 534.98 2796 536C2797.32 536.33 2798.64 536.66 2800 537C2800 537.99 2800 538.98 2800 540C2801.32 540.33 2802.64 540.66 2804 541C2804 541.99 2804 542.98 2804 544C2805.32 544.33 2806.64 544.66 2808 545C2808 545.99 2808 546.98 2808 548C2809.32 548.33 2810.64 548.66 2812 549C2812 549.99 2812 550.98 2812 552C2813.32 552.33 2814.64 552.66 2816 553C2816 553.99 2816 554.98 2816 556C2817.32 556.33 2818.64 556.66 2820 557C2820 557.99 2820 558.98 2820 560C2821.32 560.33 2822.64 560.66 2824 561C2824 563.31 2824 565.62 2824 568C2825.32 568.33 2826.64 568.66 2828 569C2828 569.99 2828 570.98 2828 572C2829.32 572.33 2830.64 572.66 2832 573C2832 573.99 2832 574.98 2832 576C2833.32 576.33 2834.64 576.66 2836 577C2836 577.99 2836 578.98 2836 580C2837.32 580.33 2838.64 580.66 2840 581C2840 581.99 2840 582.98 2840 584C2841.32 584.33 2842.64 584.66 2844 585C2844 585.99 2844 586.98 2844 588C2845.32 588.33 2846.64 588.66 2848 589C2848 591.31 2848 593.62 2848 596C2849.32 596.33 2850.64 596.66 2852 597C2852 597.99 2852 598.98 2852 600C2853.32 600.33 2854.64 600.66 2856 601C2856 601.99 2856 602.98 2856 604C2857.32 604.33 2858.64 604.66 2860 605C2860 605.99 2860 606.98 2860 608C2861.32 608.33 2862.64 608.66 2864 609C2864 609.99 2864 610.98 2864 612C2865.32 612.33 2866.64 612.66 2868 613C2868 615.31 2868 617.62 2868 620C2869.32 620.33 2870.64 620.66 2872 621C2872 621.99 2872 622.98 2872 624C2873.32 624.33 2874.64 624.66 2876 625C2876 625.99 2876 626.98 2876 628C2877.32 628.33 2878.64 628.66 2880 629C2880 631.31 2880 633.62 2880 636C2881.32 636.33 2882.64 636.66 2884 637C2884 637.99 2884 638.98 2884 640C2885.32 640.33 2886.64 640.66 2888 641C2888 641.99 2888 642.98 2888 644C2889.32 644.33 2890.64 644.66 2892 645C2892 647.31 2892 649.62 2892 652C2893.32 652.33 2894.64 652.66 2896 653C2896 653.99 2896 654.98 2896 656C2897.32 656.33 2898.64 656.66 2900 657C2900 657.99 2900 658.98 2900 660C2901.32 660.33 2902.64 660.66 2904 661C2904 663.31 2904 665.62 2904 668C2905.32 668.33 2906.64 668.66 2908 669C2908 669.99 2908 670.98 2908 672C2909.32 672.33 2910.64 672.66 2912 673C2912 675.31 2912 677.62 2912 680C2913.32 680.33 2914.64 680.66 2916 681C2916 681.99 2916 682.98 2916 684C2917.32 684.33 2918.64 684.66 2920 685C2920 685.99 2920 686.98 2920 688C2921.32 688.33 2922.64 688.66 2924 689C2924 691.31 2924 693.62 2924 696C2925.32 696.33 2926.64 696.66 2928 697C2928 697.99 2928 698.98 2928 700C2929.32 700.33 2930.64 700.66 2932 701C2932 703.31 2932 705.62 2932 708C2933.32 708.33 2934.64 708.66 2936 709C2936 709.99 2936 710.98 2936 712C2937.32 712.33 2938.64 712.66 2940 713C2940 715.31 2940 717.62 2940 720C2941.32 720.33 2942.64 720.66 2944 721C2944 721.99 2944 722.98 2944 724C2945.32 724.33 2946.64 724.66 2948 725C2948 727.31 2948 729.62 2948 732C2949.32 732.33 2950.64 732.66 2952 733C2952 733.99 2952 734.98 2952 736C2953.32 736.33 2954.64 736.66 2956 737C2956 739.31 2956 741.62 2956 744C2957.32 744.33 2958.64 744.66 2960 745C2960 747.31 2960 749.62 2960 752C2961.32 752.33 2962.64 752.66 2964 753C2964 753.99 2964 754.98 2964 756C2965.32 756.33 2966.64 756.66 2968 757C2968 759.31 2968 761.62 2968 764C2969.32 764.33 2970.64 764.66 2972 765C2972 767.31 2972 769.62 2972 772C2973.32 772.33 2974.64 772.66 2976 773C2976 773.99 2976 774.98 2976 776C2982.6 776 2989.2 776 2996 776C2996.33 774.68 2996.66 773.36 2997 772C2997.99 772 2998.98 772 3000 772C3000 766.72 3000 761.44 3000 756C2998.68 755.67 2997.36 755.34 2996 755C2996 739.82 2996 724.64 2996 709C2997.32 708.67 2998.64 708.34 3000 708C3000 705.69 3000 703.38 3000 701C3001.32 700.67 3002.64 700.34 3004 700C3004 697.69 3004 695.38 3004 693C3005.32 692.67 3006.64 692.34 3008 692C3008.33 690.68 3008.66 689.36 3009 688C3009.99 688 3010.98 688 3012 688C3012.33 686.68 3012.66 685.36 3013 684C3013.99 684 3014.98 684 3016 684C3016.33 682.68 3016.66 681.36 3017 680C3017.99 680 3018.98 680 3020 680C3020.33 678.68 3020.66 677.36 3021 676C3024.63 676 3028.26 676 3032 676C3032.33 674.68 3032.66 673.36 3033 672C3037.95 672 3042.9 672 3048 672C3048.33 670.68 3048.66 669.36 3049 668C3056.59 668 3064.18 668 3072 668C3072.33 666.68 3072.66 665.36 3073 664C3085.54 664 3098.08 664 3111 664C3111.33 665.32 3111.66 666.64 3112 668C3115.63 668 3119.26 668 3123 668C3123.33 669.32 3123.66 670.64 3124 672C3125.32 672.33 3126.64 672.66 3128 673C3128 673.99 3128 674.98 3128 676C3129.32 676.33 3130.64 676.66 3132 677C3132 677.99 3132 678.98 3132 680C3133.32 680.33 3134.64 680.66 3136 681C3136 683.31 3136 685.62 3136 688C3137.32 688.33 3138.64 688.66 3140 689C3140 691.31 3140 693.62 3140 696C3141.32 696.33 3142.64 696.66 3144 697C3144 699.31 3144 701.62 3144 704C3145.32 704.33 3146.64 704.66 3148 705C3148 707.31 3148 709.62 3148 712C3149.32 712.33 3150.64 712.66 3152 713C3152 716.63 3152 720.26 3152 724C3153.32 724.33 3154.64 724.66 3156 725C3156 727.31 3156 729.62 3156 732C3157.32 732.33 3158.64 732.66 3160 733C3160 735.31 3160 737.62 3160 740C3161.32 740.33 3162.64 740.66 3164 741C3164 741.99 3164 742.98 3164 744C3165.32 744.33 3166.64 744.66 3168 745C3168 745.99 3168 746.98 3168 748C3175.92 748 3183.84 748 3192 748C3192.33 746.68 3192.66 745.36 3193 744C3200.59 744 3208.18 744 3216 744C3216.33 742.68 3216.66 741.36 3217 740C3224.59 740 3232.18 740 3240 740C3240.33 738.68 3240.66 737.36 3241 736C3248.59 736 3256.18 736 3264 736C3264.33 734.68 3264.66 733.36 3265 732C3271.27 732 3277.54 732 3284 732C3284.33 730.68 3284.66 729.36 3285 728C3292.59 728 3300.18 728 3308 728C3308.33 726.68 3308.66 725.36 3309 724C3320.22 724 3331.44 724 3343 724C3343.33 725.32 3343.66 726.64 3344 728C3348.95 728 3353.9 728 3359 728C3359.33 729.32 3359.66 730.64 3360 732C3363.63 732 3367.26 732 3371 732C3371.33 733.32 3371.66 734.64 3372 736C3373.32 736.33 3374.64 736.66 3376 737C3376 737.99 3376 738.98 3376 740C3378.31 740 3380.62 740 3383 740C3383.33 741.32 3383.66 742.64 3384 744C3385.32 744.33 3386.64 744.66 3388 745C3388 745.99 3388 746.98 3388 748C3389.32 748.33 3390.64 748.66 3392 749C3392 749.99 3392 750.98 3392 752C3393.32 752.33 3394.64 752.66 3396 753C3396 753.99 3396 754.98 3396 756C3397.32 756.33 3398.64 756.66 3400 757C3400 757.99 3400 758.98 3400 760C3401.32 760.33 3402.64 760.66 3404 761C3404 761.99 3404 762.98 3404 764C3405.32 764.33 3406.64 764.66 3408 765C3408 767.31 3408 769.62 3408 772C3409.32 772.33 3410.64 772.66 3412 773C3412 775.31 3412 777.62 3412 780C3413.32 780.33 3414.64 780.66 3416 781C3416 783.31 3416 785.62 3416 788C3417.32 788.33 3418.64 788.66 3420 789C3420 791.31 3420 793.62 3420 796C3421.32 796.33 3422.64 796.66 3424 797C3424 800.63 3424 804.26 3424 808C3425.32 808.33 3426.64 808.66 3428 809C3428 813.95 3428 818.9 3428 824C3429.32 824.33 3430.64 824.66 3432 825C3432 832.59 3432 840.18 3432 848C3433.32 848.33 3434.64 848.66 3436 849C3436 864.18 3436 879.36 3436 895C3434.68 895.33 3433.36 895.66 3432 896C3432 902.27 3432 908.54 3432 915C3430.68 915.33 3429.36 915.66 3428 916C3428 919.63 3428 923.26 3428 927C3426.68 927.33 3425.36 927.66 3424 928C3424 930.31 3424 932.62 3424 935C3422.68 935.33 3421.36 935.66 3420 936C3420 938.31 3420 940.62 3420 943C3418.68 943.33 3417.36 943.66 3416 944C3416 946.31 3416 948.62 3416 951C3414.68 951.33 3413.36 951.66 3412 952C3411.67 953.32 3411.34 954.64 3411 956C3410.01 956 3409.02 956 3408 956C3408 958.31 3408 960.62 3408 963C3406.68 963.33 3405.36 963.66 3404 964C3403.67 965.32 3403.34 966.64 3403 968C3402.01 968 3401.02 968 3400 968C3399.67 969.32 3399.34 970.64 3399 972C3396.69 972 3394.38 972 3392 972C3391.67 973.32 3391.34 974.64 3391 976C3390.01 976 3389.02 976 3388 976C3387.67 977.32 3387.34 978.64 3387 980C3384.69 980 3382.38 980 3380 980C3379.67 981.32 3379.34 982.64 3379 984C3376.69 984 3374.38 984 3372 984C3371.67 985.32 3371.34 986.64 3371 988C3367.37 988 3363.74 988 3360 988C3359.67 989.32 3359.34 990.64 3359 992C3354.05 992 3349.1 992 3344 992C3343.67 993.32 3343.34 994.64 3343 996C3332.77 996 3322.54 996 3312 996C3311.67 997.32 3311.34 998.64 3311 1000C3299.45 1000 3287.9 1000 3276 1000C3275.67 1001.32 3275.34 1002.64 3275 1004C3264.77 1004 3254.54 1004 3244 1004C3243.67 1005.32 3243.34 1006.64 3243 1008C3232.77 1008 3222.54 1008 3212 1008C3211.67 1009.32 3211.34 1010.64 3211 1012C3200.77 1012 3190.54 1012 3180 1012C3179.67 1013.32 3179.34 1014.64 3179 1016C3168.77 1016 3158.54 1016 3148 1016C3147.67 1017.32 3147.34 1018.64 3147 1020C3135.45 1020 3123.9 1020 3112 1020C3111.67 1021.32 3111.34 1022.64 3111 1024C3110.01 1024.33 3109.02 1024.66 3108 1025C3108 1028.63 3108 1032.26 3108 1036C3109.32 1036.33 3110.64 1036.66 3112 1037C3112 1040.63 3112 1044.26 3112 1048C3113.32 1048.33 3114.64 1048.66 3116 1049C3116 1051.31 3116 1053.62 3116 1056C3117.32 1056.33 3118.64 1056.66 3120 1057C3120 1061.95 3120 1066.9 3120 1072C3121.32 1072.33 3122.64 1072.66 3124 1073C3124 1076.63 3124 1080.26 3124 1084C3125.32 1084.33 3126.64 1084.66 3128 1085C3128 1088.63 3128 1092.26 3128 1096C3129.32 1096.33 3130.64 1096.66 3132 1097C3132 1100.63 3132 1104.26 3132 1108C3133.32 1108.33 3134.64 1108.66 3136 1109C3136 1112.63 3136 1116.26 3136 1120C3137.32 1120.33 3138.64 1120.66 3140 1121C3140 1124.63 3140 1128.26 3140 1132C3141.32 1132.33 3142.64 1132.66 3144 1133C3144 1137.95 3144 1142.9 3144 1148C3145.32 1148.33 3146.64 1148.66 3148 1149C3148 1152.63 3148 1156.26 3148 1160C3149.32 1160.33 3150.64 1160.66 3152 1161C3152 1165.95 3152 1170.9 3152 1176C3153.32 1176.33 3154.64 1176.66 3156 1177C3156 1180.63 3156 1184.26 3156 1188C3157.32 1188.33 3158.64 1188.66 3160 1189C3160 1193.95 3160 1198.9 3160 1204C3161.32 1204.33 3162.64 1204.66 3164 1205C3164 1209.95 3164 1214.9 3164 1220C3165.32 1220.33 3166.64 1220.66 3168 1221C3168 1225.95 3168 1230.9 3168 1236C3169.32 1236.33 3170.64 1236.66 3172 1237C3172 1243.27 3172 1249.54 3172 1256C3173.32 1256.33 3174.64 1256.66 3176 1257C3176 1263.27 3176 1269.54 3176 1276C3177.32 1276.33 3178.64 1276.66 3180 1277C3180 1283.27 3180 1289.54 3180 1296C3181.32 1296.33 3182.64 1296.66 3184 1297C3184 1303.27 3184 1309.54 3184 1316C3185.32 1316.33 3186.64 1316.66 3188 1317C3188 1324.59 3188 1332.18 3188 1340C3189.32 1340.33 3190.64 1340.66 3192 1341C3192 1348.59 3192 1356.18 3192 1364C3193.32 1364.33 3194.64 1364.66 3196 1365C3196 1373.91 3196 1382.82 3196 1392C3197.32 1392.33 3198.64 1392.66 3200 1393C3200 1403.23 3200 1413.46 3200 1424C3201.32 1424.33 3202.64 1424.66 3204 1425C3204 1437.87 3204 1450.74 3204 1464C3205.32 1464.33 3206.64 1464.66 3208 1465C3208 1483.15 3208 1501.3 3208 1520C3209.32 1520.33 3210.64 1520.66 3212 1521C3212 1582.38 3212 1643.76 3212 1707C3210.68 1707.33 3209.36 1707.66 3208 1708C3208 1727.47 3208 1746.94 3208 1767C3206.68 1767.33 3205.36 1767.66 3204 1768C3204 1779.55 3204 1791.1 3204 1803C3202.68 1803.33 3201.36 1803.66 3200 1804C3200 1815.55 3200 1827.1 3200 1839C3198.68 1839.33 3197.36 1839.66 3196 1840C3196 1847.59 3196 1855.18 3196 1863C3194.68 1863.33 3193.36 1863.66 3192 1864C3192 1871.59 3192 1879.18 3192 1887C3190.68 1887.33 3189.36 1887.66 3188 1888C3188 1895.59 3188 1903.18 3188 1911C3186.68 1911.33 3185.36 1911.66 3184 1912C3184 1918.27 3184 1924.54 3184 1931C3182.68 1931.33 3181.36 1931.66 3180 1932C3180 1938.27 3180 1944.54 3180 1951C3178.68 1951.33 3177.36 1951.66 3176 1952C3176 1958.27 3176 1964.54 3176 1971C3174.68 1971.33 3173.36 1971.66 3172 1972C3172 1976.95 3172 1981.9 3172 1987C3170.68 1987.33 3169.36 1987.66 3168 1988C3168 1992.95 3168 1997.9 3168 2003C3166.68 2003.33 3165.36 2003.66 3164 2004C3164 2008.95 3164 2013.9 3164 2019C3162.68 2019.33 3161.36 2019.66 3160 2020C3160 2023.63 3160 2027.26 3160 2031C3158.68 2031.33 3157.36 2031.66 3156 2032C3156 2036.95 3156 2041.9 3156 2047C3154.68 2047.33 3153.36 2047.66 3152 2048C3152 2051.63 3152 2055.26 3152 2059C3150.68 2059.33 3149.36 2059.66 3148 2060C3148 2064.95 3148 2069.9 3148 2075C3146.68 2075.33 3145.36 2075.66 3144 2076C3144 2079.63 3144 2083.26 3144 2087C3142.68 2087.33 3141.36 2087.66 3140 2088C3140 2091.63 3140 2095.26 3140 2099C3138.68 2099.33 3137.36 2099.66 3136 2100C3136 2103.63 3136 2107.26 3136 2111C3134.68 2111.33 3133.36 2111.66 3132 2112C3132 2115.63 3132 2119.26 3132 2123C3130.68 2123.33 3129.36 2123.66 3128 2124C3128 2127.63 3128 2131.26 3128 2135C3126.68 2135.33 3125.36 2135.66 3124 2136C3124 2139.63 3124 2143.26 3124 2147C3122.68 2147.33 3121.36 2147.66 3120 2148C3120 2151.63 3120 2155.26 3120 2159C3118.68 2159.33 3117.36 2159.66 3116 2160C3116 2163.63 3116 2167.26 3116 2171C3114.68 2171.33 3113.36 2171.66 3112 2172C3112 2174.31 3112 2176.62 3112 2179C3110.68 2179.33 3109.36 2179.66 3108 2180C3108 2183.63 3108 2187.26 3108 2191C3106.68 2191.33 3105.36 2191.66 3104 2192C3104 2194.31 3104 2196.62 3104 2199C3102.68 2199.33 3101.36 2199.66 3100 2200C3100 2203.63 3100 2207.26 3100 2211C3098.68 2211.33 3097.36 2211.66 3096 2212C3096 2214.31 3096 2216.62 3096 2219C3094.68 2219.33 3093.36 2219.66 3092 2220C3092 2223.63 3092 2227.26 3092 2231C3090.68 2231.33 3089.36 2231.66 3088 2232C3088 2234.31 3088 2236.62 3088 2239C3086.68 2239.33 3085.36 2239.66 3084 2240C3084 2243.63 3084 2247.26 3084 2251C3082.68 2251.33 3081.36 2251.66 3080 2252C3080 2254.31 3080 2256.62 3080 2259C3078.68 2259.33 3077.36 2259.66 3076 2260C3076 2262.31 3076 2264.62 3076 2267C3074.68 2267.33 3073.36 2267.66 3072 2268C3072 2270.31 3072 2272.62 3072 2275C3070.68 2275.33 3069.36 2275.66 3068 2276C3068 2279.63 3068 2283.26 3068 2287C3066.68 2287.33 3065.36 2287.66 3064 2288C3064 2290.31 3064 2292.62 3064 2295C3062.68 2295.33 3061.36 2295.66 3060 2296C3060 2298.31 3060 2300.62 3060 2303C3058.68 2303.33 3057.36 2303.66 3056 2304C3056 2306.31 3056 2308.62 3056 2311C3054.68 2311.33 3053.36 2311.66 3052 2312C3052 2314.31 3052 2316.62 3052 2319C3050.68 2319.33 3049.36 2319.66 3048 2320C3048 2322.31 3048 2324.62 3048 2327C3046.68 2327.33 3045.36 2327.66 3044 2328C3044 2330.31 3044 2332.62 3044 2335C3042.68 2335.33 3041.36 2335.66 3040 2336C3040 2338.31 3040 2340.62 3040 2343C3038.68 2343.33 3037.36 2343.66 3036 2344C3036 2346.31 3036 2348.62 3036 2351C3034.68 2351.33 3033.36 2351.66 3032 2352C3032 2354.31 3032 2356.62 3032 2359C3030.68 2359.33 3029.36 2359.66 3028 2360C3028 2362.31 3028 2364.62 3028 2367C3026.68 2367.33 3025.36 2367.66 3024 2368C3024 2370.31 3024 2372.62 3024 2375C3022.68 2375.33 3021.36 2375.66 3020 2376C3020 2378.31 3020 2380.62 3020 2383C3018.68 2383.33 3017.36 2383.66 3016 2384C3015.67 2385.32 3015.34 2386.64 3015 2388C3014.01 2388 3013.02 2388 3012 2388C3012 2390.31 3012 2392.62 3012 2395C3010.68 2395.33 3009.36 2395.66 3008 2396C3008 2398.31 3008 2400.62 3008 2403C3006.68 2403.33 3005.36 2403.66 3004 2404C3004 2406.31 3004 2408.62 3004 2411C3002.68 2411.33 3001.36 2411.66 3000 2412C3000 2414.31 3000 2416.62 3000 2419C2998.68 2419.33 2997.36 2419.66 2996 2420C2995.67 2421.32 2995.34 2422.64 2995 2424C2994.01 2424 2993.02 2424 2992 2424C2992 2426.31 2992 2428.62 2992 2431C2990.68 2431.33 2989.36 2431.66 2988 2432C2988 2434.31 2988 2436.62 2988 2439C2986.68 2439.33 2985.36 2439.66 2984 2440C2983.67 2441.32 2983.34 2442.64 2983 2444C2982.01 2444 2981.02 2444 2980 2444C2980 2446.31 2980 2448.62 2980 2451C2978.68 2451.33 2977.36 2451.66 2976 2452C2976 2454.31 2976 2456.62 2976 2459C2974.68 2459.33 2973.36 2459.66 2972 2460C2971.67 2461.32 2971.34 2462.64 2971 2464C2970.01 2464 2969.02 2464 2968 2464C2968 2466.31 2968 2468.62 2968 2471C2966.68 2471.33 2965.36 2471.66 2964 2472C2964 2474.31 2964 2476.62 2964 2479C2962.68 2479.33 2961.36 2479.66 2960 2480C2959.67 2481.32 2959.34 2482.64 2959 2484C2958.01 2484 2957.02 2484 2956 2484C2956 2486.31 2956 2488.62 2956 2491C2954.68 2491.33 2953.36 2491.66 2952 2492C2951.67 2493.32 2951.34 2494.64 2951 2496C2950.01 2496 2949.02 2496 2948 2496C2948 2498.31 2948 2500.62 2948 2503C2946.68 2503.33 2945.36 2503.66 2944 2504C2943.67 2505.32 2943.34 2506.64 2943 2508C2942.01 2508 2941.02 2508 2940 2508C2940 2510.31 2940 2512.62 2940 2515C2938.68 2515.33 2937.36 2515.66 2936 2516C2935.67 2517.32 2935.34 2518.64 2935 2520C2934.01 2520 2933.02 2520 2932 2520C2932 2522.31 2932 2524.62 2932 2527C2930.68 2527.33 2929.36 2527.66 2928 2528C2927.67 2529.32 2927.34 2530.64 2927 2532C2926.01 2532 2925.02 2532 2924 2532C2924 2534.31 2924 2536.62 2924 2539C2922.68 2539.33 2921.36 2539.66 2920 2540C2919.67 2541.32 2919.34 2542.64 2919 2544C2918.01 2544 2917.02 2544 2916 2544C2916 2546.31 2916 2548.62 2916 2551C2914.68 2551.33 2913.36 2551.66 2912 2552C2911.67 2553.32 2911.34 2554.64 2911 2556C2910.01 2556 2909.02 2556 2908 2556C2907.67 2557.32 2907.34 2558.64 2907 2560C2906.01 2560 2905.02 2560 2904 2560C2904 2562.31 2904 2564.62 2904 2567C2902.68 2567.33 2901.36 2567.66 2900 2568C2899.67 2569.32 2899.34 2570.64 2899 2572C2898.01 2572 2897.02 2572 2896 2572C2896 2574.31 2896 2576.62 2896 2579C2894.68 2579.33 2893.36 2579.66 2892 2580C2891.67 2581.32 2891.34 2582.64 2891 2584C2890.01 2584 2889.02 2584 2888 2584C2887.67 2585.32 2887.34 2586.64 2887 2588C2886.01 2588 2885.02 2588 2884 2588C2884 2590.31 2884 2592.62 2884 2595C2882.68 2595.33 2881.36 2595.66 2880 2596C2879.67 2597.32 2879.34 2598.64 2879 2600C2878.01 2600 2877.02 2600 2876 2600C2875.67 2601.32 2875.34 2602.64 2875 2604C2874.01 2604 2873.02 2604 2872 2604C2872 2606.31 2872 2608.62 2872 2611C2870.68 2611.33 2869.36 2611.66 2868 2612C2867.67 2613.32 2867.34 2614.64 2867 2616C2866.01 2616 2865.02 2616 2864 2616C2863.67 2617.32 2863.34 2618.64 2863 2620C2862.01 2620 2861.02 2620 2860 2620C2859.67 2621.32 2859.34 2622.64 2859 2624C2858.01 2624 2857.02 2624 2856 2624C2856 2626.31 2856 2628.62 2856 2631C2854.68 2631.33 2853.36 2631.66 2852 2632C2851.67 2633.32 2851.34 2634.64 2851 2636C2850.01 2636 2849.02 2636 2848 2636C2847.67 2637.32 2847.34 2638.64 2847 2640C2846.01 2640 2845.02 2640 2844 2640C2843.67 2641.32 2843.34 2642.64 2843 2644C2842.01 2644 2841.02 2644 2840 2644C2839.67 2645.32 2839.34 2646.64 2839 2648C2838.01 2648 2837.02 2648 2836 2648C2836 2650.31 2836 2652.62 2836 2655C2834.68 2655.33 2833.36 2655.66 2832 2656C2831.67 2657.32 2831.34 2658.64 2831 2660C2830.01 2660 2829.02 2660 2828 2660C2827.67 2661.32 2827.34 2662.64 2827 2664C2826.01 2664 2825.02 2664 2824 2664C2823.67 2665.32 2823.34 2666.64 2823 2668C2822.01 2668 2821.02 2668 2820 2668C2819.67 2669.32 2819.34 2670.64 2819 2672C2818.01 2672 2817.02 2672 2816 2672C2816 2674.31 2816 2676.62 2816 2679C2814.68 2679.33 2813.36 2679.66 2812 2680C2811.67 2681.32 2811.34 2682.64 2811 2684C2810.01 2684 2809.02 2684 2808 2684C2807.67 2685.32 2807.34 2686.64 2807 2688C2806.01 2688 2805.02 2688 2804 2688C2803.67 2689.32 2803.34 2690.64 2803 2692C2802.01 2692 2801.02 2692 2800 2692C2799.67 2693.32 2799.34 2694.64 2799 2696C2798.01 2696 2797.02 2696 2796 2696C2795.67 2697.32 2795.34 2698.64 2795 2700C2794.01 2700 2793.02 2700 2792 2700C2791.67 2701.32 2791.34 2702.64 2791 2704C2790.01 2704 2789.02 2704 2788 2704C2787.67 2705.32 2787.34 2706.64 2787 2708C2786.01 2708 2785.02 2708 2784 2708C2783.67 2709.32 2783.34 2710.64 2783 2712C2782.01 2712 2781.02 2712 2780 2712C2779.67 2713.32 2779.34 2714.64 2779 2716C2778.01 2716 2777.02 2716 2776 2716C2776 2718.31 2776 2720.62 2776 2723C2774.68 2723.33 2773.36 2723.66 2772 2724C2771.67 2725.32 2771.34 2726.64 2771 2728C2770.01 2728 2769.02 2728 2768 2728C2767.67 2729.32 2767.34 2730.64 2767 2732C2766.01 2732 2765.02 2732 2764 2732C2763.67 2733.32 2763.34 2734.64 2763 2736C2762.01 2736 2761.02 2736 2760 2736C2759.67 2737.32 2759.34 2738.64 2759 2740C2758.01 2740 2757.02 2740 2756 2740C2755.67 2741.32 2755.34 2742.64 2755 2744C2754.01 2744 2753.02 2744 2752 2744C2751.67 2745.32 2751.34 2746.64 2751 2748C2750.01 2748 2749.02 2748 2748 2748C2747.67 2749.32 2747.34 2750.64 2747 2752C2746.01 2752 2745.02 2752 2744 2752C2743.67 2753.32 2743.34 2754.64 2743 2756C2742.01 2756 2741.02 2756 2740 2756C2739.67 2757.32 2739.34 2758.64 2739 2760C2738.01 2760 2737.02 2760 2736 2760C2735.67 2761.32 2735.34 2762.64 2735 2764C2734.01 2764 2733.02 2764 2732 2764C2731.67 2765.32 2731.34 2766.64 2731 2768C2730.01 2768 2729.02 2768 2728 2768C2727.67 2769.32 2727.34 2770.64 2727 2772C2726.01 2772 2725.02 2772 2724 2772C2723.67 2773.32 2723.34 2774.64 2723 2776C2722.01 2776 2721.02 2776 2720 2776C2719.67 2777.32 2719.34 2778.64 2719 2780C2718.01 2780 2717.02 2780 2716 2780C2715.67 2781.32 2715.34 2782.64 2715 2784C2714.01 2784 2713.02 2784 2712 2784C2711.67 2785.32 2711.34 2786.64 2711 2788C2708.69 2788 2706.38 2788 2704 2788C2703.67 2789.32 2703.34 2790.64 2703 2792C2702.01 2792 2701.02 2792 2700 2792C2699.67 2793.32 2699.34 2794.64 2699 2796C2698.01 2796 2697.02 2796 2696 2796C2695.67 2797.32 2695.34 2798.64 2695 2800C2694.01 2800 2693.02 2800 2692 2800C2691.67 2801.32 2691.34 2802.64 2691 2804C2690.01 2804 2689.02 2804 2688 2804C2687.67 2805.32 2687.34 2806.64 2687 2808C2686.01 2808 2685.02 2808 2684 2808C2683.67 2809.32 2683.34 2810.64 2683 2812C2682.01 2812 2681.02 2812 2680 2812C2679.67 2813.32 2679.34 2814.64 2679 2816C2678.01 2816 2677.02 2816 2676 2816C2675.67 2817.32 2675.34 2818.64 2675 2820C2674.01 2820 2673.02 2820 2672 2820C2671.67 2821.32 2671.34 2822.64 2671 2824C2668.69 2824 2666.38 2824 2664 2824C2663.67 2825.32 2663.34 2826.64 2663 2828C2662.01 2828 2661.02 2828 2660 2828C2659.67 2829.32 2659.34 2830.64 2659 2832C2658.01 2832 2657.02 2832 2656 2832C2655.67 2833.32 2655.34 2834.64 2655 2836C2654.01 2836 2653.02 2836 2652 2836C2651.67 2837.32 2651.34 2838.64 2651 2840C2650.01 2840 2649.02 2840 2648 2840C2647.67 2841.32 2647.34 2842.64 2647 2844C2646.01 2844 2645.02 2844 2644 2844C2643.67 2845.32 2643.34 2846.64 2643 2848C2640.69 2848 2638.38 2848 2636 2848C2635.67 2849.32 2635.34 2850.64 2635 2852C2634.01 2852 2633.02 2852 2632 2852C2631.67 2853.32 2631.34 2854.64 2631 2856C2630.01 2856 2629.02 2856 2628 2856C2627.67 2857.32 2627.34 2858.64 2627 2860C2626.01 2860 2625.02 2860 2624 2860C2623.67 2861.32 2623.34 2862.64 2623 2864C2620.69 2864 2618.38 2864 2616 2864C2615.67 2865.32 2615.34 2866.64 2615 2868C2614.01 2868 2613.02 2868 2612 2868C2611.67 2869.32 2611.34 2870.64 2611 2872C2610.01 2872 2609.02 2872 2608 2872C2607.67 2873.32 2607.34 2874.64 2607 2876C2606.01 2876 2605.02 2876 2604 2876C2603.67 2877.32 2603.34 2878.64 2603 2880C2600.69 2880 2598.38 2880 2596 2880C2595.67 2881.32 2595.34 2882.64 2595 2884C2594.01 2884 2593.02 2884 2592 2884C2591.67 2885.32 2591.34 2886.64 2591 2888C2590.01 2888 2589.02 2888 2588 2888C2587.67 2889.32 2587.34 2890.64 2587 2892C2584.69 2892 2582.38 2892 2580 2892C2579.67 2893.32 2579.34 2894.64 2579 2896C2578.01 2896 2577.02 2896 2576 2896C2575.67 2897.32 2575.34 2898.64 2575 2900C2574.01 2900 2573.02 2900 2572 2900C2571.67 2901.32 2571.34 2902.64 2571 2904C2568.69 2904 2566.38 2904 2564 2904C2563.67 2905.32 2563.34 2906.64 2563 2908C2562.01 2908 2561.02 2908 2560 2908C2559.67 2909.32 2559.34 2910.64 2559 2912C2558.01 2912 2557.02 2912 2556 2912C2555.67 2913.32 2555.34 2914.64 2555 2916C2552.69 2916 2550.38 2916 2548 2916C2547.67 2917.32 2547.34 2918.64 2547 2920C2546.01 2920 2545.02 2920 2544 2920C2543.67 2921.32 2543.34 2922.64 2543 2924C2540.69 2924 2538.38 2924 2536 2924C2535.67 2925.32 2535.34 2926.64 2535 2928C2534.01 2928 2533.02 2928 2532 2928C2531.67 2929.32 2531.34 2930.64 2531 2932C2528.69 2932 2526.38 2932 2524 2932C2523.67 2933.32 2523.34 2934.64 2523 2936C2522.01 2936 2521.02 2936 2520 2936C2519.67 2937.32 2519.34 2938.64 2519 2940C2516.69 2940 2514.38 2940 2512 2940C2511.67 2941.32 2511.34 2942.64 2511 2944C2510.01 2944 2509.02 2944 2508 2944C2507.67 2945.32 2507.34 2946.64 2507 2948C2504.69 2948 2502.38 2948 2500 2948C2499.67 2949.32 2499.34 2950.64 2499 2952C2498.01 2952 2497.02 2952 2496 2952C2495.67 2953.32 2495.34 2954.64 2495 2956C2492.69 2956 2490.38 2956 2488 2956C2487.67 2957.32 2487.34 2958.64 2487 2960C2486.01 2960 2485.02 2960 2484 2960C2483.67 2961.32 2483.34 2962.64 2483 2964C2480.69 2964 2478.38 2964 2476 2964C2475.67 2965.32 2475.34 2966.64 2475 2968C2474.01 2968 2473.02 2968 2472 2968C2471.67 2969.32 2471.34 2970.64 2471 2972C2468.69 2972 2466.38 2972 2464 2972C2463.67 2973.32 2463.34 2974.64 2463 2976C2460.69 2976 2458.38 2976 2456 2976C2455.67 2977.32 2455.34 2978.64 2455 2980C2454.01 2980 2453.02 2980 2452 2980C2451.67 2981.32 2451.34 2982.64 2451 2984C2448.69 2984 2446.38 2984 2444 2984C2443.67 2985.32 2443.34 2986.64 2443 2988C2440.69 2988 2438.38 2988 2436 2988C2435.67 2989.32 2435.34 2990.64 2435 2992C2434.01 2992 2433.02 2992 2432 2992C2431.67 2993.32 2431.34 2994.64 2431 2996C2428.69 2996 2426.38 2996 2424 2996C2423.67 2997.32 2423.34 2998.64 2423 3000C2420.69 3000 2418.38 3000 2416 3000C2415.67 3001.32 2415.34 3002.64 2415 3004C2412.69 3004 2410.38 3004 2408 3004C2407.67 3005.32 2407.34 3006.64 2407 3008C2406.01 3008 2405.02 3008 2404 3008C2403.67 3009.32 2403.34 3010.64 2403 3012C2400.69 3012 2398.38 3012 2396 3012C2395.67 3013.32 2395.34 3014.64 2395 3016C2392.69 3016 2390.38 3016 2388 3016C2387.67 3017.32 2387.34 3018.64 2387 3020C2384.69 3020 2382.38 3020 2380 3020C2379.67 3021.32 2379.34 3022.64 2379 3024C2376.69 3024 2374.38 3024 2372 3024C2371.67 3025.32 2371.34 3026.64 2371 3028C2370.01 3028 2369.02 3028 2368 3028C2367.67 3029.32 2367.34 3030.64 2367 3032C2364.69 3032 2362.38 3032 2360 3032C2359.67 3033.32 2359.34 3034.64 2359 3036C2356.69 3036 2354.38 3036 2352 3036C2351.67 3037.32 2351.34 3038.64 2351 3040C2348.69 3040 2346.38 3040 2344 3040C2343.67 3041.32 2343.34 3042.64 2343 3044C2340.69 3044 2338.38 3044 2336 3044C2335.67 3045.32 2335.34 3046.64 2335 3048C2332.69 3048 2330.38 3048 2328 3048C2327.67 3049.32 2327.34 3050.64 2327 3052C2324.69 3052 2322.38 3052 2320 3052C2319.67 3053.32 2319.34 3054.64 2319 3056C2315.37 3056 2311.74 3056 2308 3056C2307.67 3057.32 2307.34 3058.64 2307 3060C2304.69 3060 2302.38 3060 2300 3060C2299.67 3061.32 2299.34 3062.64 2299 3064C2296.69 3064 2294.38 3064 2292 3064C2291.67 3065.32 2291.34 3066.64 2291 3068C2288.69 3068 2286.38 3068 2284 3068C2283.67 3069.32 2283.34 3070.64 2283 3072C2280.69 3072 2278.38 3072 2276 3072C2275.67 3073.32 2275.34 3074.64 2275 3076C2272.69 3076 2270.38 3076 2268 3076C2267.67 3077.32 2267.34 3078.64 2267 3080C2263.37 3080 2259.74 3080 2256 3080C2255.67 3081.32 2255.34 3082.64 2255 3084C2252.69 3084 2250.38 3084 2248 3084C2247.67 3085.32 2247.34 3086.64 2247 3088C2244.69 3088 2242.38 3088 2240 3088C2239.67 3089.32 2239.34 3090.64 2239 3092C2235.37 3092 2231.74 3092 2228 3092C2227.67 3093.32 2227.34 3094.64 2227 3096C2224.69 3096 2222.38 3096 2220 3096C2219.67 3097.32 2219.34 3098.64 2219 3100C2215.37 3100 2211.74 3100 2208 3100C2207.67 3101.32 2207.34 3102.64 2207 3104C2204.69 3104 2202.38 3104 2200 3104C2199.67 3105.32 2199.34 3106.64 2199 3108C2195.37 3108 2191.74 3108 2188 3108C2187.67 3109.32 2187.34 3110.64 2187 3112C2183.37 3112 2179.74 3112 2176 3112C2175.67 3113.32 2175.34 3114.64 2175 3116C2172.69 3116 2170.38 3116 2168 3116C2167.67 3117.32 2167.34 3118.64 2167 3120C2163.37 3120 2159.74 3120 2156 3120C2155.67 3121.32 2155.34 3122.64 2155 3124C2151.37 3124 2147.74 3124 2144 3124C2143.67 3125.32 2143.34 3126.64 2143 3128C2139.37 3128 2135.74 3128 2132 3128C2131.67 3129.32 2131.34 3130.64 2131 3132C2127.37 3132 2123.74 3132 2120 3132C2119.67 3133.32 2119.34 3134.64 2119 3136C2115.37 3136 2111.74 3136 2108 3136C2107.67 3137.32 2107.34 3138.64 2107 3140C2103.37 3140 2099.74 3140 2096 3140C2095.67 3141.32 2095.34 3142.64 2095 3144C2091.37 3144 2087.74 3144 2084 3144C2083.67 3145.32 2083.34 3146.64 2083 3148C2079.37 3148 2075.74 3148 2072 3148C2071.67 3149.32 2071.34 3150.64 2071 3152C2066.05 3152 2061.1 3152 2056 3152C2055.67 3153.32 2055.34 3154.64 2055 3156C2050.05 3156 2045.1 3156 2040 3156C2039.67 3157.32 2039.34 3158.64 2039 3160C2035.37 3160 2031.74 3160 2028 3160C2027.67 3161.32 2027.34 3162.64 2027 3164C2022.05 3164 2017.1 3164 2012 3164C2011.67 3165.32 2011.34 3166.64 2011 3168C2006.05 3168 2001.1 3168 1996 3168C1995.67 3169.32 1995.34 3170.64 1995 3172C1988.73 3172 1982.46 3172 1976 3172C1975.67 3173.32 1975.34 3174.64 1975 3176C1970.05 3176 1965.1 3176 1960 3176C1959.67 3177.32 1959.34 3178.64 1959 3180C1952.73 3180 1946.46 3180 1940 3180C1939.67 3181.32 1939.34 3182.64 1939 3184C1932.73 3184 1926.46 3184 1920 3184C1919.67 3185.32 1919.34 3186.64 1919 3188C1912.73 3188 1906.46 3188 1900 3188C1899.67 3189.32 1899.34 3190.64 1899 3192C1891.41 3192 1883.82 3192 1876 3192C1875.67 3193.32 1875.34 3194.64 1875 3196C1867.41 3196 1859.82 3196 1852 3196C1851.67 3197.32 1851.34 3198.64 1851 3200C1842.09 3200 1833.18 3200 1824 3200C1823.67 3201.32 1823.34 3202.64 1823 3204C1812.77 3204 1802.54 3204 1792 3204C1791.67 3205.32 1791.34 3206.64 1791 3208C1778.13 3208 1765.26 3208 1752 3208C1751.67 3209.32 1751.34 3210.64 1751 3212C1732.85 3212 1714.7 3212 1696 3212C1695.67 3213.32 1695.34 3214.64 1695 3216C1636.26 3216 1577.52 3216 1517 3216C1516.67 3214.68 1516.34 3213.36 1516 3212C1497.85 3212 1479.7 3212 1461 3212C1460.67 3210.68 1460.34 3209.36 1460 3208C1447.13 3208 1434.26 3208 1421 3208C1420.67 3206.68 1420.34 3205.36 1420 3204C1409.77 3204 1399.54 3204 1389 3204C1388.67 3202.68 1388.34 3201.36 1388 3200C1379.09 3200 1370.18 3200 1361 3200C1360.67 3198.68 1360.34 3197.36 1360 3196C1351.09 3196 1342.18 3196 1333 3196C1332.67 3194.68 1332.34 3193.36 1332 3192C1325.73 3192 1319.46 3192 1313 3192C1312.67 3190.68 1312.34 3189.36 1312 3188C1304.41 3188 1296.82 3188 1289 3188C1288.67 3186.68 1288.34 3185.36 1288 3184C1281.73 3184 1275.46 3184 1269 3184C1268.67 3182.68 1268.34 3181.36 1268 3180C1263.05 3180 1258.1 3180 1253 3180C1252.67 3178.68 1252.34 3177.36 1252 3176C1245.73 3176 1239.46 3176 1233 3176C1232.67 3174.68 1232.34 3173.36 1232 3172C1227.05 3172 1222.1 3172 1217 3172C1216.67 3170.68 1216.34 3169.36 1216 3168C1211.05 3168 1206.1 3168 1201 3168C1200.67 3166.68 1200.34 3165.36 1200 3164C1195.05 3164 1190.1 3164 1185 3164C1184.67 3162.68 1184.34 3161.36 1184 3160C1180.37 3160 1176.74 3160 1173 3160C1172.67 3158.68 1172.34 3157.36 1172 3156C1167.05 3156 1162.1 3156 1157 3156C1156.67 3154.68 1156.34 3153.36 1156 3152C1152.37 3152 1148.74 3152 1145 3152C1144.67 3150.68 1144.34 3149.36 1144 3148C1140.37 3148 1136.74 3148 1133 3148C1132.67 3146.68 1132.34 3145.36 1132 3144C1127.05 3144 1122.1 3144 1117 3144C1116.67 3142.68 1116.34 3141.36 1116 3140C1112.37 3140 1108.74 3140 1105 3140C1104.67 3138.68 1104.34 3137.36 1104 3136C1100.37 3136 1096.74 3136 1093 3136C1092.67 3134.68 1092.34 3133.36 1092 3132C1088.37 3132 1084.74 3132 1081 3132C1080.67 3130.68 1080.34 3129.36 1080 3128C1077.69 3128 1075.38 3128 1073 3128C1072.67 3126.68 1072.34 3125.36 1072 3124C1068.37 3124 1064.74 3124 1061 3124C1060.67 3122.68 1060.34 3121.36 1060 3120C1056.37 3120 1052.74 3120 1049 3120C1048.67 3118.68 1048.34 3117.36 1048 3116C1044.37 3116 1040.74 3116 1037 3116C1036.67 3114.68 1036.34 3113.36 1036 3112C1033.69 3112 1031.38 3112 1029 3112C1028.67 3110.68 1028.34 3109.36 1028 3108C1024.37 3108 1020.74 3108 1017 3108C1016.67 3106.68 1016.34 3105.36 1016 3104C1013.69 3104 1011.38 3104 1009 3104C1008.67 3102.68 1008.34 3101.36 1008 3100C1004.37 3100 1000.74 3100 997 3100C996.67 3098.68 996.34 3097.36 996 3096C993.69 3096 991.38 3096 989 3096C988.67 3094.68 988.34 3093.36 988 3092C984.37 3092 980.74 3092 977 3092C976.67 3090.68 976.34 3089.36 976 3088C973.69 3088 971.38 3088 969 3088C968.67 3086.68 968.34 3085.36 968 3084C965.69 3084 963.38 3084 961 3084C960.67 3082.68 960.34 3081.36 960 3080C957.69 3080 955.38 3080 953 3080C952.67 3078.68 952.34 3077.36 952 3076C948.37 3076 944.74 3076 941 3076C940.67 3074.68 940.34 3073.36 940 3072C937.69 3072 935.38 3072 933 3072C932.67 3070.68 932.34 3069.36 932 3068C929.69 3068 927.38 3068 925 3068C924.67 3066.68 924.34 3065.36 924 3064C921.69 3064 919.38 3064 917 3064C916.67 3062.68 916.34 3061.36 916 3060C913.69 3060 911.38 3060 909 3060C908.67 3058.68 908.34 3057.36 908 3056C905.69 3056 903.38 3056 901 3056C900.67 3054.68 900.34 3053.36 900 3052C897.69 3052 895.38 3052 893 3052C892.67 3050.68 892.34 3049.36 892 3048C889.69 3048 887.38 3048 885 3048C884.67 3046.68 884.34 3045.36 884 3044C881.69 3044 879.38 3044 877 3044C876.67 3042.68 876.34 3041.36 876 3040C873.69 3040 871.38 3040 869 3040C868.67 3038.68 868.34 3037.36 868 3036C865.69 3036 863.38 3036 861 3036C860.67 3034.68 860.34 3033.36 860 3032C857.69 3032 855.38 3032 853 3032C852.67 3030.68 852.34 3029.36 852 3028C849.69 3028 847.38 3028 845 3028C844.67 3026.68 844.34 3025.36 844 3024C841.69 3024 839.38 3024 837 3024C836.67 3022.68 836.34 3021.36 836 3020C834.68 3019.67 833.36 3019.34 832 3019C832 3018.01 832 3017.02 832 3016C829.69 3016 827.38 3016 825 3016C824.67 3014.68 824.34 3013.36 824 3012C821.69 3012 819.38 3012 817 3012C816.67 3010.68 816.34 3009.36 816 3008C813.69 3008 811.38 3008 809 3008C808.67 3006.68 808.34 3005.36 808 3004C806.68 3003.67 805.36 3003.34 804 3003C804 3002.01 804 3001.02 804 3000C801.69 3000 799.38 3000 797 3000C796.67 2998.68 796.34 2997.36 796 2996C793.69 2996 791.38 2996 789 2996C788.67 2994.68 788.34 2993.36 788 2992C785.69 2992 783.38 2992 781 2992C780.67 2990.68 780.34 2989.36 780 2988C778.68 2987.67 777.36 2987.34 776 2987C776 2986.01 776 2985.02 776 2984C773.69 2984 771.38 2984 769 2984C768.67 2982.68 768.34 2981.36 768 2980C765.69 2980 763.38 2980 761 2980C760.67 2978.68 760.34 2977.36 760 2976C758.68 2975.67 757.36 2975.34 756 2975C756 2974.01 756 2973.02 756 2972C753.69 2972 751.38 2972 749 2972C748.67 2970.68 748.34 2969.36 748 2968C746.68 2967.67 745.36 2967.34 744 2967C744 2966.01 744 2965.02 744 2964C741.69 2964 739.38 2964 737 2964C736.67 2962.68 736.34 2961.36 736 2960C734.68 2959.67 733.36 2959.34 732 2959C732 2958.01 732 2957.02 732 2956C729.69 2956 727.38 2956 725 2956C724.67 2954.68 724.34 2953.36 724 2952C722.68 2951.67 721.36 2951.34 720 2951C720 2950.01 720 2949.02 720 2948C717.69 2948 715.38 2948 713 2948C712.67 2946.68 712.34 2945.36 712 2944C710.68 2943.67 709.36 2943.34 708 2943C708 2942.01 708 2941.02 708 2940C705.69 2940 703.38 2940 701 2940C700.67 2938.68 700.34 2937.36 700 2936C698.68 2935.67 697.36 2935.34 696 2935C696 2934.01 696 2933.02 696 2932C693.69 2932 691.38 2932 689 2932C688.67 2930.68 688.34 2929.36 688 2928C686.68 2927.67 685.36 2927.34 684 2927C684 2926.01 684 2925.02 684 2924C681.69 2924 679.38 2924 677 2924C676.67 2922.68 676.34 2921.36 676 2920C674.68 2919.67 673.36 2919.34 672 2919C672 2918.01 672 2917.02 672 2916C669.69 2916 667.38 2916 665 2916C664.67 2914.68 664.34 2913.36 664 2912C662.68 2911.67 661.36 2911.34 660 2911C660 2910.01 660 2909.02 660 2908C658.68 2907.67 657.36 2907.34 656 2907C656 2906.01 656 2905.02 656 2904C653.69 2904 651.38 2904 649 2904C648.67 2902.68 648.34 2901.36 648 2900C646.68 2899.67 645.36 2899.34 644 2899C644 2898.01 644 2897.02 644 2896C642.68 2895.67 641.36 2895.34 640 2895C640 2894.01 640 2893.02 640 2892C637.69 2892 635.38 2892 633 2892C632.67 2890.68 632.34 2889.36 632 2888C630.68 2887.67 629.36 2887.34 628 2887C628 2886.01 628 2885.02 628 2884C626.68 2883.67 625.36 2883.34 624 2883C624 2882.01 624 2881.02 624 2880C621.69 2880 619.38 2880 617 2880C616.67 2878.68 616.34 2877.36 616 2876C614.68 2875.67 613.36 2875.34 612 2875C612 2874.01 612 2873.02 612 2872C610.68 2871.67 609.36 2871.34 608 2871C608 2870.01 608 2869.02 608 2868C606.68 2867.67 605.36 2867.34 604 2867C604 2866.01 604 2865.02 604 2864C601.69 2864 599.38 2864 597 2864C596.67 2862.68 596.34 2861.36 596 2860C594.68 2859.67 593.36 2859.34 592 2859C592 2858.01 592 2857.02 592 2856C590.68 2855.67 589.36 2855.34 588 2855C588 2854.01 588 2853.02 588 2852C586.68 2851.67 585.36 2851.34 584 2851C584 2850.01 584 2849.02 584 2848C581.69 2848 579.38 2848 577 2848C576.67 2846.68 576.34 2845.36 576 2844C574.68 2843.67 573.36 2843.34 572 2843C572 2842.01 572 2841.02 572 2840C570.68 2839.67 569.36 2839.34 568 2839C568 2838.01 568 2837.02 568 2836C566.68 2835.67 565.36 2835.34 564 2835C564 2834.01 564 2833.02 564 2832C562.68 2831.67 561.36 2831.34 560 2831C560 2830.01 560 2829.02 560 2828C558.68 2827.67 557.36 2827.34 556 2827C556 2826.01 556 2825.02 556 2824C553.69 2824 551.38 2824 549 2824C548.67 2822.68 548.34 2821.36 548 2820C546.68 2819.67 545.36 2819.34 544 2819C544 2818.01 544 2817.02 544 2816C542.68 2815.67 541.36 2815.34 540 2815C540 2814.01 540 2813.02 540 2812C538.68 2811.67 537.36 2811.34 536 2811C536 2810.01 536 2809.02 536 2808C534.68 2807.67 533.36 2807.34 532 2807C532 2806.01 532 2805.02 532 2804C530.68 2803.67 529.36 2803.34 528 2803C528 2802.01 528 2801.02 528 2800C526.68 2799.67 525.36 2799.34 524 2799C524 2798.01 524 2797.02 524 2796C522.68 2795.67 521.36 2795.34 520 2795C520 2794.01 520 2793.02 520 2792C518.68 2791.67 517.36 2791.34 516 2791C516 2790.01 516 2789.02 516 2788C514.68 2787.67 513.36 2787.34 512 2787C512 2786.01 512 2785.02 512 2784C509.69 2784 507.38 2784 505 2784C504.67 2782.68 504.34 2781.36 504 2780C502.68 2779.67 501.36 2779.34 500 2779C500 2778.01 500 2777.02 500 2776C498.68 2775.67 497.36 2775.34 496 2775C496 2774.01 496 2773.02 496 2772C494.68 2771.67 493.36 2771.34 492 2771C492 2770.01 492 2769.02 492 2768C490.68 2767.67 489.36 2767.34 488 2767C488 2766.01 488 2765.02 488 2764C486.68 2763.67 485.36 2763.34 484 2763C484 2762.01 484 2761.02 484 2760C482.68 2759.67 481.36 2759.34 480 2759C480 2758.01 480 2757.02 480 2756C478.68 2755.67 477.36 2755.34 476 2755C476 2754.01 476 2753.02 476 2752C474.68 2751.67 473.36 2751.34 472 2751C472 2750.01 472 2749.02 472 2748C470.68 2747.67 469.36 2747.34 468 2747C468 2746.01 468 2745.02 468 2744C466.68 2743.67 465.36 2743.34 464 2743C464 2742.01 464 2741.02 464 2740C462.68 2739.67 461.36 2739.34 460 2739C460 2738.01 460 2737.02 460 2736C458.68 2735.67 457.36 2735.34 456 2735C456 2734.01 456 2733.02 456 2732C454.68 2731.67 453.36 2731.34 452 2731C452 2730.01 452 2729.02 452 2728C450.68 2727.67 449.36 2727.34 448 2727C448 2726.01 448 2725.02 448 2724C446.68 2723.67 445.36 2723.34 444 2723C444 2722.01 444 2721.02 444 2720C442.68 2719.67 441.36 2719.34 440 2719C440 2716.69 440 2714.38 440 2712C438.68 2711.67 437.36 2711.34 436 2711C436 2710.01 436 2709.02 436 2708C434.68 2707.67 433.36 2707.34 432 2707C432 2706.01 432 2705.02 432 2704C430.68 2703.67 429.36 2703.34 428 2703C428 2702.01 428 2701.02 428 2700C426.68 2699.67 425.36 2699.34 424 2699C424 2698.01 424 2697.02 424 2696C422.68 2695.67 421.36 2695.34 420 2695C420 2694.01 420 2693.02 420 2692C418.68 2691.67 417.36 2691.34 416 2691C416 2690.01 416 2689.02 416 2688C414.68 2687.67 413.36 2687.34 412 2687C412 2686.01 412 2685.02 412 2684C410.68 2683.67 409.36 2683.34 408 2683C408 2682.01 408 2681.02 408 2680C406.68 2679.67 405.36 2679.34 404 2679C404 2678.01 404 2677.02 404 2676C402.68 2675.67 401.36 2675.34 400 2675C400 2672.69 400 2670.38 400 2668C398.68 2667.67 397.36 2667.34 396 2667C396 2666.01 396 2665.02 396 2664C394.68 2663.67 393.36 2663.34 392 2663C392 2662.01 392 2661.02 392 2660C390.68 2659.67 389.36 2659.34 388 2659C388 2658.01 388 2657.02 388 2656C386.68 2655.67 385.36 2655.34 384 2655C384 2654.01 384 2653.02 384 2652C382.68 2651.67 381.36 2651.34 380 2651C380 2648.69 380 2646.38 380 2644C378.68 2643.67 377.36 2643.34 376 2643C376 2642.01 376 2641.02 376 2640C374.68 2639.67 373.36 2639.34 372 2639C372 2638.01 372 2637.02 372 2636C370.68 2635.67 369.36 2635.34 368 2635C368 2634.01 368 2633.02 368 2632C366.68 2631.67 365.36 2631.34 364 2631C364 2630.01 364 2629.02 364 2628C362.68 2627.67 361.36 2627.34 360 2627C360 2624.69 360 2622.38 360 2620C358.68 2619.67 357.36 2619.34 356 2619C356 2618.01 356 2617.02 356 2616C354.68 2615.67 353.36 2615.34 352 2615C352 2614.01 352 2613.02 352 2612C350.68 2611.67 349.36 2611.34 348 2611C348 2610.01 348 2609.02 348 2608C346.68 2607.67 345.36 2607.34 344 2607C344 2604.69 344 2602.38 344 2600C342.68 2599.67 341.36 2599.34 340 2599C340 2598.01 340 2597.02 340 2596C338.68 2595.67 337.36 2595.34 336 2595C336 2594.01 336 2593.02 336 2592C334.68 2591.67 333.36 2591.34 332 2591C332 2588.69 332 2586.38 332 2584C330.68 2583.67 329.36 2583.34 328 2583C328 2582.01 328 2581.02 328 2580C326.68 2579.67 325.36 2579.34 324 2579C324 2578.01 324 2577.02 324 2576C322.68 2575.67 321.36 2575.34 320 2575C320 2572.69 320 2570.38 320 2568C318.68 2567.67 317.36 2567.34 316 2567C316 2566.01 316 2565.02 316 2564C314.68 2563.67 313.36 2563.34 312 2563C312 2562.01 312 2561.02 312 2560C310.68 2559.67 309.36 2559.34 308 2559C308 2556.69 308 2554.38 308 2552C306.68 2551.67 305.36 2551.34 304 2551C304 2550.01 304 2549.02 304 2548C302.68 2547.67 301.36 2547.34 300 2547C300 2544.69 300 2542.38 300 2540C298.68 2539.67 297.36 2539.34 296 2539C296 2538.01 296 2537.02 296 2536C294.68 2535.67 293.36 2535.34 292 2535C292 2534.01 292 2533.02 292 2532C290.68 2531.67 289.36 2531.34 288 2531C288 2528.69 288 2526.38 288 2524C286.68 2523.67 285.36 2523.34 284 2523C284 2522.01 284 2521.02 284 2520C282.68 2519.67 281.36 2519.34 280 2519C280 2516.69 280 2514.38 280 2512C278.68 2511.67 277.36 2511.34 276 2511C276 2510.01 276 2509.02 276 2508C274.68 2507.67 273.36 2507.34 272 2507C272 2504.69 272 2502.38 272 2500C270.68 2499.67 269.36 2499.34 268 2499C268 2498.01 268 2497.02 268 2496C266.68 2495.67 265.36 2495.34 264 2495C264 2492.69 264 2490.38 264 2488C262.68 2487.67 261.36 2487.34 260 2487C260 2486.01 260 2485.02 260 2484C258.68 2483.67 257.36 2483.34 256 2483C256 2480.69 256 2478.38 256 2476C254.68 2475.67 253.36 2475.34 252 2475C252 2474.01 252 2473.02 252 2472C250.68 2471.67 249.36 2471.34 248 2471C248 2468.69 248 2466.38 248 2464C246.68 2463.67 245.36 2463.34 244 2463C244 2462.01 244 2461.02 244 2460C242.68 2459.67 241.36 2459.34 240 2459C240 2456.69 240 2454.38 240 2452C238.68 2451.67 237.36 2451.34 236 2451C236 2448.69 236 2446.38 236 2444C234.68 2443.67 233.36 2443.34 232 2443C232 2442.01 232 2441.02 232 2440C230.68 2439.67 229.36 2439.34 228 2439C228 2436.69 228 2434.38 228 2432C226.68 2431.67 225.36 2431.34 224 2431C224 2428.69 224 2426.38 224 2424C222.68 2423.67 221.36 2423.34 220 2423C220 2422.01 220 2421.02 220 2420C218.68 2419.67 217.36 2419.34 216 2419C216 2416.69 216 2414.38 216 2412C214.68 2411.67 213.36 2411.34 212 2411C212 2408.69 212 2406.38 212 2404C210.68 2403.67 209.36 2403.34 208 2403C208 2400.69 208 2398.38 208 2396C206.68 2395.67 205.36 2395.34 204 2395C204 2394.01 204 2393.02 204 2392C202.68 2391.67 201.36 2391.34 200 2391C200 2388.69 200 2386.38 200 2384C198.68 2383.67 197.36 2383.34 196 2383C196 2380.69 196 2378.38 196 2376C194.68 2375.67 193.36 2375.34 192 2375C192 2372.69 192 2370.38 192 2368C190.68 2367.67 189.36 2367.34 188 2367C188 2364.69 188 2362.38 188 2360C186.68 2359.67 185.36 2359.34 184 2359C184 2356.69 184 2354.38 184 2352C182.68 2351.67 181.36 2351.34 180 2351C180 2348.69 180 2346.38 180 2344C178.68 2343.67 177.36 2343.34 176 2343C176 2340.69 176 2338.38 176 2336C174.68 2335.67 173.36 2335.34 172 2335C172 2332.69 172 2330.38 172 2328C170.68 2327.67 169.36 2327.34 168 2327C168 2324.69 168 2322.38 168 2320C166.68 2319.67 165.36 2319.34 164 2319C164 2316.69 164 2314.38 164 2312C162.68 2311.67 161.36 2311.34 160 2311C160 2308.69 160 2306.38 160 2304C158.68 2303.67 157.36 2303.34 156 2303C156 2300.69 156 2298.38 156 2296C154.68 2295.67 153.36 2295.34 152 2295C152 2292.69 152 2290.38 152 2288C150.68 2287.67 149.36 2287.34 148 2287C148 2284.69 148 2282.38 148 2280C146.68 2279.67 145.36 2279.34 144 2279C144 2276.69 144 2274.38 144 2272C142.68 2271.67 141.36 2271.34 140 2271C140 2268.69 140 2266.38 140 2264C138.68 2263.67 137.36 2263.34 136 2263C136 2259.37 136 2255.74 136 2252C134.68 2251.67 133.36 2251.34 132 2251C132 2248.69 132 2246.38 132 2244C130.68 2243.67 129.36 2243.34 128 2243C128 2240.69 128 2238.38 128 2236C126.02 2235.5 126.02 2235.5 124 2235C124 2232.69 124 2230.38 124 2228C122.02 2227.5 122.02 2227.5 120 2227C120 2223.37 120 2219.74 120 2216C118.02 2215.5 118.02 2215.5 116 2215C116 2212.69 116 2210.38 116 2208C114.02 2207.5 114.02 2207.5 112 2207C112 2203.37 112 2199.74 112 2196C110.02 2195.5 110.02 2195.5 108 2195C108 2192.69 108 2190.38 108 2188C106.02 2187.5 106.02 2187.5 104 2187C104 2183.37 104 2179.74 104 2176C102.02 2175.5 102.02 2175.5 100 2175C100 2172.69 100 2170.38 100 2168C98.02 2167.5 98.02 2167.5 96 2167C96 2163.37 96 2159.74 96 2156C94.02 2155.5 94.02 2155.5 92 2155C92 2151.37 92 2147.74 92 2144C90.02 2143.5 90.02 2143.5 88 2143C88 2139.37 88 2135.74 88 2132C86.02 2131.5 86.02 2131.5 84 2131C84 2127.37 84 2123.74 84 2120C82.02 2119.5 82.02 2119.5 80 2119C80 2115.37 80 2111.74 80 2108C78.02 2107.5 78.02 2107.5 76 2107C76 2103.37 76 2099.74 76 2096C74.02 2095.5 74.02 2095.5 72 2095C72 2091.37 72 2087.74 72 2084C70.02 2083.5 70.02 2083.5 68 2083C68 2079.37 68 2075.74 68 2072C66.02 2071.5 66.02 2071.5 64 2071C64 2067.37 64 2063.74 64 2060C62.68 2059.67 61.36 2059.34 60 2059C60 2054.05 60 2049.1 60 2044C58.68 2043.67 57.36 2043.34 56 2043C56 2039.37 56 2035.74 56 2032C54.68 2031.67 53.36 2031.34 52 2031C52 2026.05 52 2021.1 52 2016C50.68 2015.67 49.36 2015.34 48 2015C48 2010.05 48 2005.1 48 2000C46.68 1999.67 45.36 1999.34 44 1999C44 1994.05 44 1989.1 44 1984C42.68 1983.67 41.36 1983.34 40 1983C40 1978.05 40 1973.1 40 1968C38.68 1967.67 37.36 1967.34 36 1967C36 1960.73 36 1954.46 36 1948C34.68 1947.67 33.36 1947.34 32 1947C32 1940.73 32 1934.46 32 1928C30.68 1927.67 29.36 1927.34 28 1927C28 1920.73 28 1914.46 28 1908C26.68 1907.67 25.36 1907.34 24 1907C24 1900.73 24 1894.46 24 1888C22.68 1887.67 21.36 1887.34 20 1887C20 1879.41 20 1871.82 20 1864C18.68 1863.67 17.36 1863.34 16 1863C16 1854.09 16 1845.18 16 1836C14.68 1835.67 13.36 1835.34 12 1835C12 1824.77 12 1814.54 12 1804C10.68 1803.67 9.36 1803.34 8 1803C8 1791.45 8 1779.9 8 1768C6.68 1767.67 5.36 1767.34 4 1767C4 1751.49 4 1735.98 4 1720C2.68 1719.67 1.36 1719.34 0 1719C0 1647.06 0 1575.12 0 1501C1.32 1500.67 2.64 1500.34 4 1500C4 1483.17 4 1466.34 4 1449C5.32 1448.67 6.64 1448.34 8 1448C8 1436.45 8 1424.9 8 1413C9.32 1412.67 10.64 1412.34 12 1412C12 1401.77 12 1391.54 12 1381C13.32 1380.67 14.64 1380.34 16 1380C16 1372.41 16 1364.82 16 1357C17.32 1356.67 18.64 1356.34 20 1356C20 1348.41 20 1340.82 20 1333C21.32 1332.67 22.64 1332.34 24 1332C24 1324.41 24 1316.82 24 1309C25.32 1308.67 26.64 1308.34 28 1308C28 1301.73 28 1295.46 28 1289C29.32 1288.67 30.64 1288.34 32 1288C32 1283.05 32 1278.1 32 1273C33.32 1272.67 34.64 1272.34 36 1272C36 1267.05 36 1262.1 36 1257C37.32 1256.67 38.64 1256.34 40 1256C40 1249.73 40 1243.46 40 1237C41.32 1236.67 42.64 1236.34 44 1236C44 1231.05 44 1226.1 44 1221C45.32 1220.67 46.64 1220.34 48 1220C48 1216.37 48 1212.74 48 1209C49.32 1208.67 50.64 1208.34 52 1208C52 1203.05 52 1198.1 52 1193C53.32 1192.67 54.64 1192.34 56 1192C56 1187.05 56 1182.1 56 1177C57.32 1176.67 58.64 1176.34 60 1176C60 1172.37 60 1168.74 60 1165C61.32 1164.67 62.64 1164.34 64 1164C64 1160.37 64 1156.74 64 1153C65.32 1152.67 66.64 1152.34 68 1152C68 1148.37 68 1144.74 68 1141C69.32 1140.67 70.64 1140.34 72 1140C72 1136.37 72 1132.74 72 1129C73.32 1128.67 74.64 1128.34 76 1128C76 1124.37 76 1120.74 76 1117C77.32 1116.67 78.64 1116.34 80 1116C80 1112.37 80 1108.74 80 1105C81.32 1104.67 82.64 1104.34 84 1104C84 1100.37 84 1096.74 84 1093C85.32 1092.67 86.64 1092.34 88 1092C88 1088.37 88 1084.74 88 1081C89.32 1080.67 90.64 1080.34 92 1080C92 1076.37 92 1072.74 92 1069C93.32 1068.67 94.64 1068.34 96 1068C96 1065.69 96 1063.38 96 1061C97.32 1060.67 98.64 1060.34 100 1060C100 1056.37 100 1052.74 100 1049C101.32 1048.67 102.64 1048.34 104 1048C104 1045.69 104 1043.38 104 1041C105.32 1040.67 106.64 1040.34 108 1040C108 1036.37 108 1032.74 108 1029C109.32 1028.67 110.64 1028.34 112 1028C112 1024.37 112 1020.74 112 1017C113.32 1016.67 114.64 1016.34 116 1016C116 1013.69 116 1011.38 116 1009C117.32 1008.67 118.64 1008.34 120 1008C120 1005.69 120 1003.38 120 1001C121.32 1000.67 122.64 1000.34 124 1000C124 996.37 124 992.74 124 989C125.32 988.67 126.64 988.34 128 988C128 985.69 128 983.38 128 981C129.32 980.67 130.64 980.34 132 980C132 977.69 132 975.38 132 973C133.32 972.67 134.64 972.34 136 972C136 969.69 136 967.38 136 965C137.32 964.67 138.64 964.34 140 964C140 960.37 140 956.74 140 953C141.32 952.67 142.64 952.34 144 952C144 949.69 144 947.38 144 945C145.32 944.67 146.64 944.34 148 944C148 941.69 148 939.38 148 937C149.32 936.67 150.64 936.34 152 936C152 933.69 152 931.38 152 929C153.32 928.67 154.64 928.34 156 928C156 925.69 156 923.38 156 921C157.32 920.67 158.64 920.34 160 920C160 917.69 160 915.38 160 913C161.32 912.67 162.64 912.34 164 912C164 909.69 164 907.38 164 905C165.32 904.67 166.64 904.34 168 904C168 901.69 168 899.38 168 897C169.32 896.67 170.64 896.34 172 896C172 893.69 172 891.38 172 889C173.32 888.67 174.64 888.34 176 888C176 885.69 176 883.38 176 881C177.32 880.67 178.64 880.34 180 880C180 877.69 180 875.38 180 873C181.32 872.67 182.64 872.34 184 872C184 869.69 184 867.38 184 865C185.32 864.67 186.64 864.34 188 864C188 861.69 188 859.38 188 857C189.32 856.67 190.64 856.34 192 856C192.33 854.68 192.66 853.36 193 852C193.99 852 194.98 852 196 852C196 849.69 196 847.38 196 845C197.32 844.67 198.64 844.34 200 844C200 841.69 200 839.38 200 837C201.32 836.67 202.64 836.34 204 836C204 833.69 204 831.38 204 829C205.32 828.67 206.64 828.34 208 828C208 825.69 208 823.38 208 821C209.32 820.67 210.64 820.34 212 820C212.33 818.68 212.66 817.36 213 816C213.99 816 214.98 816 216 816C216 813.69 216 811.38 216 809C217.32 808.67 218.64 808.34 220 808C220 805.69 220 803.38 220 801C221.32 800.67 222.64 800.34 224 800C224.33 798.68 224.66 797.36 225 796C225.99 796 226.98 796 228 796C228 793.69 228 791.38 228 789C229.32 788.67 230.64 788.34 232 788C232 785.69 232 783.38 232 781C233.32 780.67 234.64 780.34 236 780C236.33 778.68 236.66 777.36 237 776C237.99 776 238.98 776 240 776C240 773.69 240 771.38 240 769C241.32 768.67 242.64 768.34 244 768C244 765.69 244 763.38 244 761C245.32 760.67 246.64 760.34 248 760C248.33 758.68 248.66 757.36 249 756C249.99 756 250.98 756 252 756C252 753.69 252 751.38 252 749C253.32 748.67 254.64 748.34 256 748C256.33 746.68 256.66 745.36 257 744C257.99 744 258.98 744 260 744C260 741.69 260 739.38 260 737C261.32 736.67 262.64 736.34 264 736C264.33 734.68 264.66 733.36 265 732C265.99 732 266.98 732 268 732C268 729.69 268 727.38 268 725C269.32 724.67 270.64 724.34 272 724C272.33 722.68 272.66 721.36 273 720C273.99 720 274.98 720 276 720C276 717.69 276 715.38 276 713C277.32 712.67 278.64 712.34 280 712C280.33 710.68 280.66 709.36 281 708C281.99 708 282.98 708 284 708C284 705.69 284 703.38 284 701C285.32 700.67 286.64 700.34 288 700C288.33 698.68 288.66 697.36 289 696C289.99 696 290.98 696 292 696C292 693.69 292 691.38 292 689C293.32 688.67 294.64 688.34 296 688C296.33 686.68 296.66 685.36 297 684C297.99 684 298.98 684 300 684C300.33 682.68 300.66 681.36 301 680C301.99 680 302.98 680 304 680C304 677.69 304 675.38 304 673C305.32 672.67 306.64 672.34 308 672C308.33 670.68 308.66 669.36 309 668C309.99 668 310.98 668 312 668C312 665.69 312 663.38 312 661C313.32 660.67 314.64 660.34 316 660C316.33 658.68 316.66 657.36 317 656C317.99 656 318.98 656 320 656C320.33 654.68 320.66 653.36 321 652C321.99 652 322.98 652 324 652C324 649.69 324 647.38 324 645C325.32 644.67 326.64 644.34 328 644C328.33 642.68 328.66 641.36 329 640C329.99 640 330.98 640 332 640C332.33 638.68 332.66 637.36 333 636C333.99 636 334.98 636 336 636C336 633.69 336 631.38 336 629C337.32 628.67 338.64 628.34 340 628C340.33 626.68 340.66 625.36 341 624C341.99 624 342.98 624 344 624C344.33 622.68 344.66 621.36 345 620C345.99 620 346.98 620 348 620C348.33 618.68 348.66 617.36 349 616C349.99 616 350.98 616 352 616C352 613.69 352 611.38 352 609C353.32 608.67 354.64 608.34 356 608C356.33 606.68 356.66 605.36 357 604C357.99 604 358.98 604 360 604C360.33 602.68 360.66 601.36 361 600C361.99 600 362.98 600 364 600C364.33 598.68 364.66 597.36 365 596C365.99 596 366.98 596 368 596C368 593.69 368 591.38 368 589C369.32 588.67 370.64 588.34 372 588C372.33 586.68 372.66 585.36 373 584C373.99 584 374.98 584 376 584C376.33 582.68 376.66 581.36 377 580C377.99 580 378.98 580 380 580C380.33 578.68 380.66 577.36 381 576C381.99 576 382.98 576 384 576C384.33 574.68 384.66 573.36 385 572C385.99 572 386.98 572 388 572C388 569.69 388 567.38 388 565C389.32 564.67 390.64 564.34 392 564C392.33 562.68 392.66 561.36 393 560C393.99 560 394.98 560 396 560C396.33 558.68 396.66 557.36 397 556C397.99 556 398.98 556 400 556C400.33 554.68 400.66 553.36 401 552C401.99 552 402.98 552 404 552C404.33 550.68 404.66 549.36 405 548C405.99 548 406.98 548 408 548C408.33 546.68 408.66 545.36 409 544C409.99 544 410.98 544 412 544C412.33 542.68 412.66 541.36 413 540C413.99 540 414.98 540 416 540C416 537.69 416 535.38 416 533C417.32 532.67 418.64 532.34 420 532C420.33 530.68 420.66 529.36 421 528C421.99 528 422.98 528 424 528C424.33 526.68 424.66 525.36 425 524C425.99 524 426.98 524 428 524C428.33 522.68 428.66 521.36 429 520C429.99 520 430.98 520 432 520C432.33 518.68 432.66 517.36 433 516C433.99 516 434.98 516 436 516C436.33 514.68 436.66 513.36 437 512C437.99 512 438.98 512 440 512C440.33 510.68 440.66 509.36 441 508C441.99 508 442.98 508 444 508C444.33 506.68 444.66 505.36 445 504C445.99 504 446.98 504 448 504C448.33 502.68 448.66 501.36 449 500C449.99 500 450.98 500 452 500C452.33 498.68 452.66 497.36 453 496C453.99 496 454.98 496 456 496C456.33 494.68 456.66 493.36 457 492C457.99 492 458.98 492 460 492C459.969 490.298 459.969 490.298 459.938 488.562C460 485 460 485 461 484C463.333 483.959 465.667 483.958 468 484C468 481.69 468 479.38 468 477C469.32 476.67 470.64 476.34 472 476C472.33 474.68 472.66 473.36 473 472C473.99 472 474.98 472 476 472C476.33 470.68 476.66 469.36 477 468C477.99 468 478.98 468 480 468C480.33 466.68 480.66 465.36 481 464C481.99 464 482.98 464 484 464C484.33 462.68 484.66 461.36 485 460C485.99 460 486.98 460 488 460C488.33 458.68 488.66 457.36 489 456C489.99 456 490.98 456 492 456C492.33 454.68 492.66 453.36 493 452C495.31 452 497.62 452 500 452C500.33 450.68 500.66 449.36 501 448C501.99 448 502.98 448 504 448C504.33 446.68 504.66 445.36 505 444C505.99 444 506.98 444 508 444C508.33 442.68 508.66 441.36 509 440C509.99 440 510.98 440 512 440C512.33 438.68 512.66 437.36 513 436C513.99 436 514.98 436 516 436C516.33 434.68 516.66 433.36 517 432C517.99 432 518.98 432 520 432C520.33 430.68 520.66 429.36 521 428C521.99 428 522.98 428 524 428C524.33 426.68 524.66 425.36 525 424C525.99 424 526.98 424 528 424C528.33 422.68 528.66 421.36 529 420C529.99 420 530.98 420 532 420C532.33 418.68 532.66 417.36 533 416C533.99 416 534.98 416 536 416C536.33 414.68 536.66 413.36 537 412C537.99 412 538.98 412 540 412C540.33 410.68 540.66 409.36 541 408C541.99 408 542.98 408 544 408C544.33 406.68 544.66 405.36 545 404C545.99 404 546.98 404 548 404C548.33 402.68 548.66 401.36 549 400C551.31 400 553.62 400 556 400C556.33 398.68 556.66 397.36 557 396C557.99 396 558.98 396 560 396C560.33 394.68 560.66 393.36 561 392C561.99 392 562.98 392 564 392C564.33 390.68 564.66 389.36 565 388C565.99 388 566.98 388 568 388C568.33 386.68 568.66 385.36 569 384C569.99 384 570.98 384 572 384C572.33 382.68 572.66 381.36 573 380C573.99 380 574.98 380 576 380C576.33 378.68 576.66 377.36 577 376C577.99 376 578.98 376 580 376C580.33 374.68 580.66 373.36 581 372C583.31 372 585.62 372 588 372C588.33 370.68 588.66 369.36 589 368C589.99 368 590.98 368 592 368C592.33 366.68 592.66 365.36 593 364C593.99 364 594.98 364 596 364C596.33 362.68 596.66 361.36 597 360C597.99 360 598.98 360 600 360C600.33 358.68 600.66 357.36 601 356C601.99 356 602.98 356 604 356C604.33 354.68 604.66 353.36 605 352C607.31 352 609.62 352 612 352C612.33 350.68 612.66 349.36 613 348C613.99 348 614.98 348 616 348C616.33 346.68 616.66 345.36 617 344C617.99 344 618.98 344 620 344C620.33 342.68 620.66 341.36 621 340C621.99 340 622.98 340 624 340C624.33 338.68 624.66 337.36 625 336C627.31 336 629.62 336 632 336C632.33 334.68 632.66 333.36 633 332C633.99 332 634.98 332 636 332C636.33 330.68 636.66 329.36 637 328C637.99 328 638.98 328 640 328C640.33 326.68 640.66 325.36 641 324C643.31 324 645.62 324 648 324C648.33 322.68 648.66 321.36 649 320C649.99 320 650.98 320 652 320C652.33 318.68 652.66 317.36 653 316C653.99 316 654.98 316 656 316C656.33 314.68 656.66 313.36 657 312C659.31 312 661.62 312 664 312C664.33 310.68 664.66 309.36 665 308C665.99 308 666.98 308 668 308C668.33 306.68 668.66 305.36 669 304C669.99 304 670.98 304 672 304C672.33 302.68 672.66 301.36 673 300C675.31 300 677.62 300 680 300C680.33 298.68 680.66 297.36 681 296C681.99 296 682.98 296 684 296C684.33 294.68 684.66 293.36 685 292C685.99 292 686.98 292 688 292C688.33 290.68 688.66 289.36 689 288C691.31 288 693.62 288 696 288C696.33 286.68 696.66 285.36 697 284C697.99 284 698.98 284 700 284C700.33 282.68 700.66 281.36 701 280C703.31 280 705.62 280 708 280C708.33 278.68 708.66 277.36 709 276C709.99 276 710.98 276 712 276C712.33 274.68 712.66 273.36 713 272C715.31 272 717.62 272 720 272C720.33 270.68 720.66 269.36 721 268C721.99 268 722.98 268 724 268C724.33 266.68 724.66 265.36 725 264C727.31 264 729.62 264 732 264C732.33 262.68 732.66 261.36 733 260C733.99 260 734.98 260 736 260C736.33 258.68 736.66 257.36 737 256C739.31 256 741.62 256 744 256C744.33 254.68 744.66 253.36 745 252C745.99 252 746.98 252 748 252C748.33 250.68 748.66 249.36 749 248C751.31 248 753.62 248 756 248C756.33 246.68 756.66 245.36 757 244C757.99 244 758.98 244 760 244C760.33 242.68 760.66 241.36 761 240C763.31 240 765.62 240 768 240C768.33 238.68 768.66 237.36 769 236C769.99 236 770.98 236 772 236C772.33 234.68 772.66 233.36 773 232C775.31 232 777.62 232 780 232C780.33 230.68 780.66 229.36 781 228C783.31 228 785.62 228 788 228C788.33 226.68 788.66 225.36 789 224C789.99 224 790.98 224 792 224C792.33 222.68 792.66 221.36 793 220C795.31 220 797.62 220 800 220C800.33 218.68 800.66 217.36 801 216C803.31 216 805.62 216 808 216C808.33 214.68 808.66 213.36 809 212C809.99 212 810.98 212 812 212C812.33 210.68 812.66 209.36 813 208C815.31 208 817.62 208 820 208C820.33 206.68 820.66 205.36 821 204C823.31 204 825.62 204 828 204C828.33 202.68 828.66 201.36 829 200C831.31 200 833.62 200 836 200C836.33 198.68 836.66 197.36 837 196C837.99 196 838.98 196 840 196C840.33 194.68 840.66 193.36 841 192C843.31 192 845.62 192 848 192C848.33 190.68 848.66 189.36 849 188C851.31 188 853.62 188 856 188C856.33 186.68 856.66 185.36 857 184C859.31 184 861.62 184 864 184C864.33 182.68 864.66 181.36 865 180C867.31 180 869.62 180 872 180C872.33 178.68 872.66 177.36 873 176C875.31 176 877.62 176 880 176C880.33 174.68 880.66 173.36 881 172C883.31 172 885.62 172 888 172C888.33 170.68 888.66 169.36 889 168C889.99 168 890.98 168 892 168C892.33 166.68 892.66 165.36 893 164C895.31 164 897.62 164 900 164C900.33 162.68 900.66 161.36 901 160C903.31 160 905.62 160 908 160C908.33 158.68 908.66 157.36 909 156C911.31 156 913.62 156 916 156C916.33 154.68 916.66 153.36 917 152C920.63 152 924.26 152 928 152C928.33 150.68 928.66 149.36 929 148C931.31 148 933.62 148 936 148C936.33 146.68 936.66 145.36 937 144C939.31 144 941.62 144 944 144C944.33 142.68 944.66 141.36 945 140C947.31 140 949.62 140 952 140C952.33 138.68 952.66 137.36 953 136C955.31 136 957.62 136 960 136C960.33 134.68 960.66 133.36 961 132C963.31 132 965.62 132 968 132C968.33 130.68 968.66 129.36 969 128C972.63 128 976.26 128 980 128C980.33 126.68 980.66 125.36 981 124C983.31 124 985.62 124 988 124C988.33 122.68 988.66 121.36 989 120C991.31 120 993.62 120 996 120C996.33 118.68 996.66 117.36 997 116C1000.63 116 1004.26 116 1008 116C1008.33 114.68 1008.66 113.36 1009 112C1011.31 112 1013.62 112 1016 112C1016.33 110.68 1016.66 109.36 1017 108C1020.63 108 1024.26 108 1028 108C1028.33 106.68 1028.66 105.36 1029 104C1032.63 104 1036.26 104 1040 104C1040.33 102.68 1040.66 101.36 1041 100C1043.31 100 1045.62 100 1048 100C1048.33 98.68 1048.66 97.36 1049 96C1052.63 96 1056.26 96 1060 96C1060.33 94.68 1060.66 93.36 1061 92C1064.63 92 1068.26 92 1072 92C1072.33 90.68 1072.66 89.36 1073 88C1075.31 88 1077.62 88 1080 88C1080.33 86.68 1080.66 85.36 1081 84C1084.63 84 1088.26 84 1092 84C1092.33 82.68 1092.66 81.36 1093 80C1096.63 80 1100.26 80 1104 80C1104.33 78.68 1104.66 77.36 1105 76C1108.63 76 1112.26 76 1116 76C1116.33 74.68 1116.66 73.36 1117 72C1121.95 72 1126.9 72 1132 72C1132.33 70.68 1132.66 69.36 1133 68C1136.63 68 1140.26 68 1144 68C1144.33 66.68 1144.66 65.36 1145 64C1148.63 64 1152.26 64 1156 64C1156.33 62.68 1156.66 61.36 1157 60C1161.95 60 1166.9 60 1172 60C1172.33 58.68 1172.66 57.36 1173 56C1176.63 56 1180.26 56 1184 56C1184.33 54.68 1184.66 53.36 1185 52C1189.95 52 1194.9 52 1200 52C1200.33 50.68 1200.66 49.36 1201 48C1205.95 48 1210.9 48 1216 48C1216.33 46.68 1216.66 45.36 1217 44C1221.95 44 1226.9 44 1232 44C1232.33 42.68 1232.66 41.36 1233 40C1239.27 40 1245.54 40 1252 40C1252.33 38.68 1252.66 37.36 1253 36C1257.95 36 1262.9 36 1268 36C1268.33 34.68 1268.66 33.36 1269 32C1275.27 32 1281.54 32 1288 32C1288.33 30.68 1288.66 29.36 1289 28C1295.27 28 1301.54 28 1308 28C1308.33 26.68 1308.66 25.36 1309 24C1316.59 24 1324.18 24 1332 24C1332.33 22.68 1332.66 21.36 1333 20C1340.59 20 1348.18 20 1356 20C1356.33 18.68 1356.66 17.36 1357 16C1365.91 16 1374.82 16 1384 16C1384.33 14.68 1384.66 13.36 1385 12C1395.23 12 1405.46 12 1416 12C1416.33 10.68 1416.66 9.36 1417 8C1431.19 8 1445.38 8 1460 8C1460.33 6.68 1460.66 5.36 1461 4C1479.15 4 1497.3 4 1516 4C1516.33 2.68 1516.66 1.36 1517 0Z" fill="#111111"/>
</svg>
